<svg xmlns="http://www.w3.org/2000/svg" viewBox="0 0 48 48" width="48" height="48">
  <path fill="#25D366" d="M24 4C13.505 4 5 12.505 5 23c0 3.59 1.02 7.05 2.87 10.01L4 44l11.48-3.84C19.24 42.52 21.55 43 24 43c10.495 0 19-8.505 19-19S34.495 4 24 4zm0 35c-2.12 0-4.12-.58-5.85-1.59l-.42-.24-4.37 1.46 1.49-4.27-.28-.46c-1.15-1.89-1.8-4.08-1.8-6.4 0-8.82 7.18-16 16-16s16 7.18 16 16-7.18 16-16 16z"/>
  <path fill="#FFF" d="M33.38 29.76c-.47-.24-2.79-1.38-3.22-1.53-.43-.16-.74-.24-1.05.24-.31.48-1.21 1.53-1.48 1.84-.27.31-.54.35-1.01.11-.47-.24-1.99-.74-3.79-2.34-1.4-1.25-2.35-2.79-2.62-3.27-.27-.48-.03-.74.2-.98.2-.2.47-.54.71-.81.24-.27.31-.47.47-.78.16-.31.08-.57-.04-.81-.12-.24-1.05-2.53-1.44-3.46-.38-.89-.76-.77-1.05-.78-.27-.01-.58-.01-.89-.01-.31 0-.82.12-1.25.56-.43.48-1.63 1.59-1.63 3.88 0 2.29 1.67 4.51 1.9 4.82.24.31 3.32 5.07 8.05 7.1 1.13.5 2 .79 2.68 1.01 1.13.36 2.16.31 2.97.19.91-.14 2.79-.93 3.18-1.82.39-.89.39-1.65.27-1.81-.12-.16-.43-.27-.9-.51z"/>
</svg>